<?xml version="1.0"?>
<svg xmlns="http://www.w3.org/2000/svg" id="Layer_5" enable-background="new 0 0 64 64" height="512px" viewBox="0 0 64 64" width="512px"><g><g><circle cx="56" cy="8" r="5" data-original="#000000" class="active-path" data-old_color="#000000" fill="#0059B0"/><path d="m23 30h2v12h-2z" data-original="#000000" class="active-path" data-old_color="#000000" fill="#0059B0"/><path d="m29 32h6v4.453c2.934-3.335 7.22-5.453 12-5.453 2.916 0 5.643.797 8 2.165v-18.245c-1.183-.17-2.269-.636-3.184-1.322l-6.117 6.116c.188.392.301.824.301 1.286 0 1.654-1.346 3-3 3s-3-1.346-3-3c0-.462.113-.894.301-1.285l-2.015-2.015c-.392.187-.824.3-1.286.3s-.894-.113-1.285-.301l-5.015 5.015c.187.392.3.824.3 1.286 0 1.654-1.346 3-3 3s-3-1.346-3-3 1.346-3 3-3c.462 0 .894.113 1.285.301l5.015-5.015c-.187-.392-.3-.824-.3-1.286 0-1.654 1.346-3 3-3s3 1.346 3 3c0 .462-.113.894-.301 1.285l2.015 2.015c.392-.187.824-.3 1.286-.3s.894.113 1.285.301l6.116-6.116c-.488-.651-.868-1.386-1.107-2.185h-46.294v36h28.051c.042-.678.117-1.347.241-2h-2.292zm-20-20h14v2h-14zm0 4h14v2h-14zm0 4h14v2h-14zm0 4h14v2h-14zm-4-12h2v2h-2zm0 4h2v2h-2zm0 4h2v2h-2zm0 4h2v2h-2zm6 20h-6v-10h6zm8 0h-6v-8h6zm8 0h-6v-16h6z" data-original="#000000" class="active-path" data-old_color="#000000" fill="#0059B0"/><path d="m48 33.051v4c5.046.504 9 4.773 9 9.949 0 1.463-.324 2.85-.891 4.104l3.469 2.003c.902-1.848 1.422-3.916 1.422-6.107 0-7.382-5.747-13.433-13-13.949z" data-original="#000000" class="active-path" data-old_color="#000000" fill="#0059B0"/><path d="m7 36h2v6h-2z" data-original="#000000" class="active-path" data-old_color="#000000" fill="#0059B0"/><circle cx="43" cy="21" r="1" data-original="#000000" class="active-path" data-old_color="#000000" fill="#0059B0"/><path d="m15 38h2v4h-2z" data-original="#000000" class="active-path" data-old_color="#000000" fill="#0059B0"/><circle cx="37" cy="15" r="1" data-original="#000000" class="active-path" data-old_color="#000000" fill="#0059B0"/><path d="m33 34h-2v8h.811c.314-.951.71-1.865 1.189-2.729z" data-original="#000000" class="active-path" data-old_color="#000000" fill="#0059B0"/><path d="m37 47c0-5.176 3.954-9.446 9-9.949v-4c-7.253.516-13 6.567-13 13.949 0 2.191.52 4.259 1.422 6.107l3.469-2.003c-.567-1.254-.891-2.641-.891-4.104z" data-original="#000000" class="active-path" data-old_color="#000000" fill="#0059B0"/><path d="m39 47c0 4.411 3.589 8 8 8s8-3.589 8-8-3.589-8-8-8-8 3.589-8 8zm8-6c3.309 0 6 2.691 6 6s-2.691 6-6 6-6-2.691-6-6 2.691-6 6-6z" data-original="#000000" class="active-path" data-old_color="#000000" fill="#0059B0"/><path d="m47 57c-3.336 0-6.287-1.648-8.105-4.166l-3.483 2.011c2.52 3.712 6.774 6.155 11.588 6.155s9.068-2.443 11.588-6.155l-3.483-2.011c-1.818 2.518-4.769 4.166-8.105 4.166z" data-original="#000000" class="active-path" data-old_color="#000000" fill="#0059B0"/><circle cx="28" cy="24" r="1" data-original="#000000" class="active-path" data-old_color="#000000" fill="#0059B0"/><circle cx="47" cy="47" r="4" data-original="#000000" class="active-path" data-old_color="#000000" fill="#0059B0"/></g></g> </svg>
