<?xml version="1.0"?>
<svg xmlns="http://www.w3.org/2000/svg" xmlns:xlink="http://www.w3.org/1999/xlink" version="1.1" id="Capa_1" x="0px" y="0px" viewBox="0 0 512 512" style="enable-background:new 0 0 512 512;" xml:space="preserve" width="512px" height="512px" class=""><g><g>
	<g>
		<g>
			<path d="M124.629,256h242.517c50.453,0,91.52-39.872,91.52-88.896c0-48.939-40.96-88.789-91.328-88.875     C346.837,31.104,299.072,0,245.888,0c-69.291,0-126.272,52.096-131.52,118.059c-34.475,4.843-61.035,33.771-61.035,68.608     C53.333,224.896,85.333,256,124.629,256z" data-original="#000000" class="active-path" data-old_color="#000000" fill="#0059B0"/>
			<path d="M458.667,405.333H53.333C23.872,405.333,0,429.205,0,458.667S23.872,512,53.333,512h405.333     C488.128,512,512,488.128,512,458.667S488.128,405.333,458.667,405.333z M75.307,490.667c-5.888,0-10.773-4.779-10.773-10.667     c0-5.888,4.672-10.667,10.56-10.667h0.213c5.888,0,10.667,4.779,10.667,10.667C85.973,485.888,81.195,490.667,75.307,490.667z      M117.973,490.667c-5.888,0-10.773-4.779-10.773-10.667c0-5.888,4.672-10.667,10.56-10.667h0.213     c5.888,0,10.667,4.779,10.667,10.667C128.64,485.888,123.861,490.667,117.973,490.667z M448,490.667     c-11.755,0-21.333-9.579-21.333-21.333c0-11.755,9.579-21.333,21.333-21.333c11.755,0,21.333,9.579,21.333,21.333     C469.333,481.088,459.755,490.667,448,490.667z" data-original="#000000" class="active-path" data-old_color="#000000" fill="#0059B0"/>
			<path d="M53.333,384h405.333C488.128,384,512,360.128,512,330.667s-23.872-53.333-53.333-53.333H53.333     C23.872,277.333,0,301.205,0,330.667S23.872,384,53.333,384z M448,320c11.755,0,21.333,9.579,21.333,21.333     c0,11.755-9.579,21.333-21.333,21.333c-11.755,0-21.333-9.579-21.333-21.333C426.667,329.579,436.245,320,448,320z      M117.76,341.333h0.213c5.888,0,10.667,4.779,10.667,10.667c0,5.888-4.779,10.667-10.667,10.667S107.2,357.888,107.2,352     C107.2,346.112,111.872,341.333,117.76,341.333z M75.093,341.333h0.213c5.888,0,10.667,4.779,10.667,10.667     c0,5.888-4.779,10.667-10.667,10.667S64.533,357.888,64.533,352C64.533,346.112,69.205,341.333,75.093,341.333z" data-original="#000000" class="active-path" data-old_color="#000000" fill="#0059B0"/>
		</g>
	</g>
</g></g> </svg>
