<?xml version="1.0"?>
<svg xmlns="http://www.w3.org/2000/svg" xmlns:xlink="http://www.w3.org/1999/xlink" version="1.1" id="Capa_1" x="0px" y="0px" viewBox="0 0 512 512" style="enable-background:new 0 0 512 512;" xml:space="preserve" width="512px" height="512px"><g><g>
	<g>
		<circle cx="301.69" cy="78.7" r="8.157" data-original="#000000" class="active-path" data-old_color="#000000" fill="#0059B0"/>
	</g>
</g><g>
	<g>
		<circle cx="301.69" cy="99.06" r="8.157" data-original="#000000" class="active-path" data-old_color="#000000" fill="#0059B0"/>
	</g>
</g><g>
	<g>
		<circle cx="301.69" cy="119.43" r="8.157" data-original="#000000" class="active-path" data-old_color="#000000" fill="#0059B0"/>
	</g>
</g><g>
	<g>
		<path d="M374.5,71.196h-45.354c-4.143,0-7.5,3.357-7.5,7.5s3.357,7.5,7.5,7.5H374.5c4.143,0,7.5-3.357,7.5-7.5    S378.643,71.196,374.5,71.196z" data-original="#000000" class="active-path" data-old_color="#000000" fill="#0059B0"/>
	</g>
</g><g>
	<g>
		<path d="M374.5,91.563h-45.354c-4.143,0-7.5,3.357-7.5,7.5s3.357,7.5,7.5,7.5H374.5c4.143,0,7.5-3.357,7.5-7.5    S378.643,91.563,374.5,91.563z" data-original="#000000" class="active-path" data-old_color="#000000" fill="#0059B0"/>
	</g>
</g><g>
	<g>
		<path d="M374.5,112.022h-45.354c-4.143,0-7.5,3.357-7.5,7.5c0,4.143,3.357,7.5,7.5,7.5H374.5c4.143,0,7.5-3.357,7.5-7.5    C382,115.379,378.643,112.022,374.5,112.022z" data-original="#000000" class="active-path" data-old_color="#000000" fill="#0059B0"/>
	</g>
</g><g>
	<g>
		<circle cx="142.67" cy="78.7" r="8.157" data-original="#000000" class="active-path" data-old_color="#000000" fill="#0059B0"/>
	</g>
</g><g>
	<g>
		<circle cx="142.67" cy="99.06" r="8.157" data-original="#000000" class="active-path" data-old_color="#000000" fill="#0059B0"/>
	</g>
</g><g>
	<g>
		<circle cx="142.67" cy="119.43" r="8.157" data-original="#000000" class="active-path" data-old_color="#000000" fill="#0059B0"/>
	</g>
</g><g>
	<g>
		<path d="M215.486,71.196h-45.354c-4.143,0-7.5,3.357-7.5,7.5s3.357,7.5,7.5,7.5h45.354c4.143,0,7.5-3.357,7.5-7.5    S219.629,71.196,215.486,71.196z" data-original="#000000" class="active-path" data-old_color="#000000" fill="#0059B0"/>
	</g>
</g><g>
	<g>
		<path d="M215.486,91.563h-45.354c-4.143,0-7.5,3.357-7.5,7.5s3.357,7.5,7.5,7.5h45.354c4.143,0,7.5-3.357,7.5-7.5    S219.629,91.563,215.486,91.563z" data-original="#000000" class="active-path" data-old_color="#000000" fill="#0059B0"/>
	</g>
</g><g>
	<g>
		<path d="M215.486,112.022h-45.354c-4.143,0-7.5,3.357-7.5,7.5c0,4.143,3.357,7.5,7.5,7.5h45.354c4.143,0,7.5-3.357,7.5-7.5    C222.986,115.379,219.629,112.022,215.486,112.022z" data-original="#000000" class="active-path" data-old_color="#000000" fill="#0059B0"/>
	</g>
</g><g>
	<g>
		<path d="M484.5,378.739c-12.563,0-23.178,8.472-26.452,20h-70.853V347.5h21.774c21.797,0,39.53-17.692,39.53-39.439    c0-21.737-17.717-39.422-39.5-39.439V7.5c0-4.143-3.357-7.5-7.5-7.5h-130c-4.143,0-7.5,3.357-7.5,7.5v182.584    c-4.402-2.406-9.101-4.292-14-5.578V7.5c0-4.143-3.357-7.5-7.5-7.5h-130c-4.143,0-7.5,3.357-7.5,7.5v152    c0,4.143,3.357,7.5,7.5,7.5c4.143,0,7.5-3.357,7.5-7.5v-3.937h115v26.945c-0.167-0.001-0.333-0.008-0.5-0.008    c-30.283,0-55.535,21.9-60.675,50.66c-5.727-2.534-11.967-3.872-18.343-3.872c-14.365,0-27.182,6.715-35.482,17.158V192    c0-4.143-3.357-7.5-7.5-7.5c-4.143,0-7.5,3.357-7.5,7.5v76.673c-0.659-0.033-1.319-0.052-1.979-0.052    c-21.792,0-39.521,17.692-39.521,39.439s17.73,39.44,39.522,39.44h21.784v51.239H53.952c-3.274-11.528-13.889-20-26.452-20    c-15.163,0-27.5,12.337-27.5,27.5c0,15.163,12.337,27.5,27.5,27.5c12.563,0,23.178-8.472,26.452-20h78.353    c4.143,0,7.5-3.357,7.5-7.5V347.5H172v4.333c0,4.143,3.357,7.5,7.5,7.5s7.5-3.357,7.5-7.5V347.5h61.5v71.048    c-11.528,3.274-20,13.889-20,26.452c0,15.163,12.337,27.5,27.5,27.5c15.163,0,27.5-12.337,27.5-27.5    c0-12.563-8.472-23.178-20-26.452V347.5H325v110.548c-11.528,3.274-20,13.889-20,26.452c0,15.163,12.337,27.5,27.5,27.5    c15.163,0,27.5-12.337,27.5-27.5c0-12.563-8.472-23.178-20-26.452V347.5h32.195v58.739c0,4.143,3.357,7.5,7.5,7.5h78.353    c3.274,11.528,13.889,20,26.452,20c15.163,0,27.5-12.337,27.5-27.5C512,391.076,499.663,378.739,484.5,378.739z M27.5,418.739    c-6.893,0-12.5-5.607-12.5-12.5s5.607-12.5,12.5-12.5s12.5,5.607,12.5,12.5S34.393,418.739,27.5,418.739z M279,15h115v27.563H279    V15z M278.999,155.564h72.823c4.143,0,7.5-3.357,7.5-7.5s-3.357-7.5-7.5-7.5H279v-83h115v83h-9.833c-4.143,0-7.5,3.357-7.5,7.5    s3.357,7.5,7.5,7.5H394v113.03c-4.953-13.212-17.732-22.644-32.677-22.644c-0.72,0-1.436,0.021-2.147,0.064    c0.031-0.676,0.047-1.353,0.047-2.032c0-23.994-19.563-43.514-43.608-43.514c-10.844,0-21.034,3.938-28.892,10.894    c-2.243-3.55-4.84-6.836-7.724-9.828V155.564z M120,15h115v27.563H120V15z M120,140.563v-83h115v83H120z M268.5,445    c0,6.893-5.607,12.5-12.5,12.5s-12.5-5.607-12.5-12.5s5.607-12.5,12.5-12.5S268.5,438.107,268.5,445z M345,484.5    c0,6.893-5.607,12.5-12.5,12.5s-12.5-5.607-12.5-12.5s5.607-12.5,12.5-12.5S345,477.607,345,484.5z M103.021,332.5    C89.5,332.5,78.5,321.536,78.5,308.061c0-13.476,11-24.439,24.521-24.439c4.029,0,8.019,0.995,11.535,2.879    c2.498,1.338,5.534,1.154,7.852-0.474s3.521-4.422,3.11-7.224c-0.206-1.408-0.311-2.867-0.311-4.336    c0-16.641,13.581-30.179,30.275-30.179c7.372,0,14.47,2.671,19.985,7.52c0.006,0.006,0.014,0.01,0.02,0.015    c6.522,5.732,10.263,13.985,10.263,22.643c0,7.36-2.688,14.449-7.567,19.959c-2.747,3.102-2.459,7.841,0.642,10.587    c1.428,1.265,3.202,1.886,4.97,1.886c2.072,0,4.136-0.854,5.617-2.527c7.313-8.256,11.339-18.876,11.339-29.904    c0-11.813-4.655-23.107-12.856-31.512c0.553-25.156,21.239-45.454,46.605-45.454c18.074,0,34.637,10.64,42.241,26.798    c-3.094,6.078-4.737,12.802-4.737,19.688c0,14.887,7.502,28.583,20.067,36.638c1.254,0.803,2.655,1.187,4.041,1.187    c2.47,0,4.889-1.22,6.321-3.453c2.235-3.487,1.22-8.127-2.267-10.362c-8.242-5.283-13.163-14.258-13.163-24.009    c0-5.405,1.522-10.662,4.401-15.204c0.003-0.006,0.008-0.01,0.011-0.016c5.279-8.327,14.325-13.298,24.198-13.298    c15.774,0,28.607,12.792,28.607,28.515c0,3.289-0.553,6.505-1.643,9.556c-1.02,2.856-0.219,6.046,2.029,8.082    c2.247,2.036,5.502,2.518,8.242,1.22c2.649-1.254,5.5-1.89,8.472-1.89c10.959,0,19.875,8.885,19.875,19.806    c0,0.689-0.031,1.344-0.092,1.944c-0.307,3.027,1.247,5.94,3.932,7.373s5.97,1.102,8.314-0.841    c4.369-3.618,9.915-5.611,15.617-5.611c13.526,0,24.53,10.964,24.53,24.439c0,13.475-11,24.437-24.526,24.437H103.021z     M484.5,418.739c-6.893,0-12.5-5.607-12.5-12.5s5.607-12.5,12.5-12.5s12.5,5.607,12.5,12.5S491.393,418.739,484.5,418.739z" data-original="#000000" class="active-path" data-old_color="#000000" fill="#0059B0"/>
	</g>
</g><g>
	<g>
		<path d="M187,458.048v-74.215c0-4.143-3.357-7.5-7.5-7.5s-7.5,3.357-7.5,7.5v74.215c-11.528,3.274-20,13.889-20,26.452    c0,15.163,12.337,27.5,27.5,27.5c15.163,0,27.5-12.337,27.5-27.5C207,471.937,198.528,461.322,187,458.048z M179.5,497    c-6.893,0-12.5-5.607-12.5-12.5s5.607-12.5,12.5-12.5s12.5,5.607,12.5,12.5S186.393,497,179.5,497z" data-original="#000000" class="active-path" data-old_color="#000000" fill="#0059B0"/>
	</g>
</g></g> </svg>
